<svg xmlns="http://www.w3.org/2000/svg" viewBox="0 0 214.7 214.7"><defs><style>.cls-1{fill:#393939;}.cls-2{fill:#fff;}.cls-3{fill:#dd9e32;}.cls-4{fill:none;}</style></defs><title>Asset 148 px</title><g id="Layer_2" data-name="Layer 2"><g id="Capa_1" data-name="Capa 1"><path class="cls-1" d="M95.64,214.06A107.34,107.34,0,1,0,48.28,197c2.51-33.79,5.4-81.62,3.07-87.09-2.93-7.4-7.72-10-9.74-10.65A1.14,1.14,0,0,1,40.73,98c0-.21,0-.46.05-.73a1.39,1.39,0,0,1-.05-.47c.38-6.83,3.42-53.39,3.42-53.39l1.76-.08,2,43.11a.9.9,0,0,0,.21.5.85.85,0,0,0,.16-.44l2.27-43.09,1.8,0,2.17,43.08a1.09,1.09,0,0,0,.12.37s0,0,0,0a.05.05,0,0,0,0,0,1.09,1.09,0,0,0,.12-.37L57,43.39l1.8,0,2.26,43.09a.85.85,0,0,0,.16.44.82.82,0,0,0,.21-.5l2-43.11,1.76.08s3,46.56,3.43,53.39a1.7,1.7,0,0,1-.05.47c0,.27,0,.52,0,.73a1.12,1.12,0,0,1-.88,1.24c-2,.67-6.81,3.25-9.74,10.65-2.51,5.89,1.05,60.93,3.64,94.62a106.52,106.52,0,0,0,19,6.84C83,187.6,88,151.19,84.66,138c-1.69-6.75-6.19-8.79-9.74-10.65-2.34-1.22-1.69-63.88,6.73-79.07,3.3-6,6.95-7.6,9-6l0,0c.16.13,2.86,1.69,2.86,6.14,0,52.85-.73,52.85-.73,88,.4,28.82,1.79,59.2,2.85,76.59"/><path class="cls-2" d="M58.05,109.9c2.93-7.4,7.73-10,9.74-10.65A1.12,1.12,0,0,0,68.67,98c0-.21,0-.46,0-.73a1.7,1.7,0,0,0,.05-.47c-.39-6.83-3.43-53.39-3.43-53.39l-1.76-.08-2,43.11a.82.82,0,0,1-.21.5.85.85,0,0,1-.16-.44L58.82,43.42l-1.8,0L54.84,86.47a1.09,1.09,0,0,1-.12.37.05.05,0,0,1,0,0s0,0,0,0a1.09,1.09,0,0,1-.12-.37L52.39,43.39l-1.8,0L48.32,86.51a.85.85,0,0,1-.16.44.9.9,0,0,1-.21-.5l-2-43.11-1.76.08s-3,46.56-3.42,53.39a1.39,1.39,0,0,0,.05.47c0,.27,0,.52-.05.73a1.14,1.14,0,0,0,.88,1.24c2,.67,6.81,3.25,9.74,10.65,2.33,5.47-.56,53.3-3.07,87.09a106.64,106.64,0,0,0,13.41,7.53C59.1,170.83,55.54,115.79,58.05,109.9Z"/><path class="cls-2" d="M92.8,136.48c0-35.2.73-35.2.73-88,0-4.45-2.7-6-2.86-6.14l0,0c-2-1.56-5.69.08-9,6-8.42,15.19-9.07,77.85-6.73,79.07,3.55,1.86,8,3.9,9.74,10.65,3.29,13.16-1.7,49.57-4,73.33q3.93,1,8,1.71l7,1C94.59,196.67,93.2,165.3,92.8,136.48Z"/><path class="cls-3" d="M121.14,127.9a6,6,0,0,1-6-6V108.15a6,6,0,1,1,12,0V111h-3.94v-3a2.19,2.19,0,0,0-2.19-2.19,2.05,2.05,0,0,0-1.53.64,2.11,2.11,0,0,0-.64,1.55v13.78A2.17,2.17,0,0,0,121,124a2.13,2.13,0,0,0,1.55-.63,2.08,2.08,0,0,0,.64-1.54v-3.47h3.94v3.51a6,6,0,0,1-6,6Z"/><path class="cls-3" d="M134.48,121.79l-.92,5.79h-4l4.28-25.18h5.23l4.22,25.18h-4l-.89-5.79Zm2-13.62-1.4,9.92h2.81Z"/><path class="cls-3" d="M152.79,102.4a5.77,5.77,0,0,1,4.66,1.75,6.36,6.36,0,0,1,1.31,4.26v3.66a5.89,5.89,0,0,1-2,4.52l2.81,11h-4.11l-2.3-9.49H150.6v9.49h-3.8V102.4Zm2.27,6.07a1.93,1.93,0,0,0-2.17-2.19H150.6v8.06h2.29a2.19,2.19,0,0,0,2.17-2.19Z"/><path class="cls-3" d="M165.87,106.22h-4V102.4h11.86v3.82h-4v21.36h-3.8Z"/><path class="cls-3" d="M178.45,121.79l-.93,5.79h-4l4.28-25.18h5.22l4.22,25.18h-4l-.89-5.79Zm2-13.62L179,118.09h2.82Z"/><path class="cls-3" d="M120.75,63.74l-.92,5.78h-4l4.28-25.17h5.22l4.22,25.17h-4l-.89-5.78Zm2-13.63L121.34,60h2.81Z"/><path class="cls-3" d="M125.46,99.29H115.12V74.11h3.79v21.4h6.55Z"/><path class="cls-3" d="M133.24,93.5l-.93,5.79h-3.95l4.28-25.18h5.22l4.22,25.18h-4l-.89-5.79Zm2-13.62-1.41,9.92h2.82Z"/><path class="cls-2" d="M115.34,134.72v37.95h37.95V134.72Z"/><path class="cls-1" d="M117.61,137v9.3h9.3V137Zm13.29,0v1.33h-1.33v1.33h-1.33V141h1.33v2.66h1.33v2.65h1.33V145h1.33v2.66h1.32V149h-1.32v2.66h1.32v1.32h-2.65v-2.65H130.9V149h-1.33v-4h-1.33v2.66h-5.31V149H121.6v-1.33h-4V149h4v1.33h1.33V149h1.33v2.66h-4v-1.33h-1.33v2.65h-1.33v1.33h1.33v1.33h-1.33v1.33h1.33v1.33h-1.33v1.33h1.33v-1.33h2.66v-1.33h6.64v-1.33h4v-1.33h1.33v1.33h1.32v1.33h-1.32v1.33h1.32v1.33h-1.32v1.33h1.32v1.32h-2.65v1.33h-2.66v-1.33h1.33v-1.32h1.33v-1.33H130.9v1.33h-1.33v-2.66h2.66v-1.33h-2.66v1.33h-1.33v6.64h1.33v1.33h-1.33v4h1.33v-1.33h1.33v1.33h1.33v-1.33h1.33v-1.33h-1.33v-1.33h2.65v2.66h4v1.33h2.66v-1.33h1.33v1.33h1.32v-1.33h2.66v-1.33h-1.33v-1.33h2.66v-1.33h1.33v-2.66h1.33v-2.65h-2.66v5.31h-1.33v-6.64h-1.33v-1.33h-1.33v-1.33h-1.32v-1.33h1.32v-2.65h1.33v-1.33h-2.65v-2.66H140.2v-4h-1.33V141h-1.33v-1.33h2.66V137h-5.32v1.33h1.33v4h-2.65v1.33H130.9V141h-1.33v-1.33h1.33v-1.33h1.33V137Zm10.63,0v9.3h9.3V137Z"/><path class="cls-2" d="M118.94,138.32V145h6.65v-6.64Zm23.92,0V145h6.64v-6.64Z"/><path class="cls-1" d="M120.27,139.65v4h4v-4Zm12,0V141h1.33v-1.33Zm12,0v4h4v-4Z"/><path class="cls-2" d="M134.88,145v1.33h1.33V149h-1.33v2.66h1.33v-1.33h1.33v1.33h1.33v1.32h-2.66v1.33h-1.33v1.33h1.33v4h-1.33v1.33h4v-2.66h2.66v-1.33h-2.66v-4h1.33v-1.32h1.33V149H140.2v1.33h-1.33V145h-1.33v1.33h-1.33V145Z"/><path class="cls-1" d="M146.84,147.62V149h1.33v-1.33Z"/><path class="cls-2" d="M125.59,149v1.33h1.32v1.33h-2.65v2.65h1.33v1.33h2.65v-2.66h1.33v1.33h1.33v-1.33h-1.33v-1.32h1.33v-1.33h-1.33V149h-1.33v1.33h-1.33V149Z"/><path class="cls-1" d="M149.5,149v1.33h-2.66v1.33h1.33v2.65h1.33v1.33h-2.66v-2.66h-1.33v2.66h1.33v1.33h1.33v1.33h1.33v-1.33h1.33v-4H149.5v-1.32h1.33V149Zm-21.26,1.33v1.33h-1.33v1.32h-1.32v1.33h1.32v-1.33h1.33v-1.32h1.33v-1.33Z"/><path class="cls-2" d="M118.94,152.93v1.33h1.33v-1.33Zm2.66,0v2.66h1.33v-2.66Zm-2.66,2.66v1.33h1.33v-1.33Z"/><path class="cls-1" d="M137.54,156.92v1.33h1.33v-1.33Z"/><path class="cls-2" d="M142.86,156.92v1.33h1.32v-1.33Z"/><path class="cls-1" d="M124.26,158.25v1.33h2.65v-1.33Z"/><path class="cls-2" d="M140.2,159.58v4h4v-4Z"/><path class="cls-1" d="M117.61,160.91v9.3h9.3v-9.3Zm23.92,0v1.32h1.33v-1.32Z"/><path class="cls-2" d="M118.94,162.23v6.65h6.65v-6.65Zm18.6,0v2.66h-2.66v1.33h1.33v1.33h1.33v-2.66h1.33v-2.66Z"/><path class="cls-1" d="M120.27,163.56v4h4v-4Z"/><path class="cls-2" d="M130.9,164.89v1.33h-1.33v1.33h1.33v-1.33h1.33v-1.33Zm9.3,0v1.33h-1.33v1.33h1.33v1.33h1.33v-1.33h1.33v1.33h1.32v-2.66h-1.32v-1.33Z"/><path class="cls-1" d="M149.5,166.22v1.33h-1.33v2.66h2.66v-1.33H149.5v-1.33h1.33v-1.33Z"/><circle class="cls-4" cx="107.35" cy="107.35" r="107.35"/></g></g></svg>